<svg height="512pt" viewBox="0 0 512 512.001" width="512pt" xmlns="http://www.w3.org/2000/svg"><path d="m469.355469 42.644531c-56.855469-56.859375-149.371094-56.859375-206.230469 0l-83.121094 83.121094c-9.214844 9.214844-17.101562 19.550781-23.511718 30.757813-10.996094 6.28125-21.347657 14.105468-30.726563 23.480468l-83.121094 83.121094c-56.859375 56.859375-56.859375 149.375 0 206.234375 56.859375 56.855469 149.371094 56.855469 206.230469 0l83.121094-83.125c9.222656-9.21875 17.117187-19.550781 23.53125-30.765625 10.992187-6.28125 21.335937-14.101562 30.707031-23.472656l83.125-83.121094c56.855469-56.859375 56.855469-149.375-.003906-206.230469zm-241.699219 405.492188c-45.160156 45.160156-118.636719 45.160156-163.792969 0-45.160156-45.15625-45.160156-118.636719 0-163.792969l83.121094-83.121094c45.15625-45.15625 118.632813-45.15625 163.792969 0 5.582031 5.582032 10.539062 11.683594 14.839844 18.199219l-26.132813 26.136719c-9.078125 9.074218-23.445313 8.929687-32.707031-.335938-20.8125-20.808594-54.671875-20.8125-75.480469 0l-83.4375 83.433594c-20.808594 20.808594-20.808594 54.671875 0 75.480469 20.8125 20.808593 54.671875 20.808593 75.480469 0l41.554687-41.554688c24.535157 10.648438 51.421875 14.234375 77.542969 10.769531zm86.488281-283.324219 35.734375-35.730469c9.109375-9.113281 23.933594-9.113281 33.042969 0 9.109375 9.109375 9.109375 23.929688 0 33.042969l-35.738281 35.734375c-4.566406-6.320313-9.625-12.296875-15.1875-17.855469-5.625-5.625-11.597656-10.679687-17.851563-15.191406zm-134.140625 167.183594c5.625 5.621094 11.597656 10.679687 17.851563 15.191406l-35.734375 35.730469c-9.109375 9.113281-23.929688 9.113281-33.042969 0-9.109375-9.109375-9.109375-23.929688 0-33.042969l35.738281-35.734375c4.566406 6.316406 9.628906 12.292969 15.1875 17.855469zm268.132813-104.339844-83.121094 83.121094c-45.15625 45.15625-118.632813 45.15625-163.792969 0-5.582031-5.582032-10.539062-11.6875-14.839844-18.203125l26.132813-26.132813c9.109375-9.109375 23.933594-9.109375 33.042969 0 20.808594 20.808594 54.519531 20.960938 75.144531.335938l83.4375-83.433594c20.808594-20.8125 20.808594-54.671875 0-75.480469-20.8125-20.8125-54.671875-20.8125-75.480469 0l-41.554687 41.550781c-24.535157-10.648437-51.421875-14.230468-77.542969-10.769531l74.785156-74.78125c45.15625-45.160156 118.632813-45.160156 163.792969 0 45.15625 45.15625 45.15625 118.632813-.003906 163.792969zm0 0"/></svg>